<mxfile host="app.diagrams.net" modified="2023-03-20T12:16:23.907Z" agent="5.0 (Windows NT 10.0; Win64; x64) AppleWebKit/537.36 (KHTML, like Gecko) Chrome/111.0.0.0 Safari/537.36 Edg/111.0.1661.44" etag="rki3ZhaQHYLbi9SVIxrL" version="21.0.8" type="github">
  <diagram name="Page-1" id="6B0SmOun_fBiBgaIdOWX">
    <mxGraphModel dx="737" dy="740" grid="1" gridSize="10" guides="1" tooltips="1" connect="1" arrows="1" fold="1" page="1" pageScale="1" pageWidth="850" pageHeight="1100" math="0" shadow="0">
      <root>
        <mxCell id="0" />
        <mxCell id="1" parent="0" />
        <mxCell id="PquAa38lctwWkDSnIu5R-1" value="Process&amp;nbsp;" style="swimlane;fontStyle=1;align=center;verticalAlign=top;childLayout=stackLayout;horizontal=1;startSize=26;horizontalStack=0;resizeParent=1;resizeParentMax=0;resizeLast=0;collapsible=1;marginBottom=0;whiteSpace=wrap;html=1;" parent="1" vertex="1">
          <mxGeometry x="280" y="90" width="200" height="220" as="geometry" />
        </mxCell>
        <mxCell id="PquAa38lctwWkDSnIu5R-2" value="+Pid&amp;nbsp; &amp;nbsp; &amp;nbsp; &amp;nbsp; &amp;nbsp; &amp;nbsp; &amp;nbsp; &amp;nbsp; &amp;nbsp; &amp;nbsp; &amp;nbsp; : int&amp;nbsp;&lt;br&gt;+time_cycle&amp;nbsp; &amp;nbsp; &amp;nbsp; &amp;nbsp; : int&amp;nbsp;&lt;br&gt;+state&amp;nbsp; &amp;nbsp; &amp;nbsp; &amp;nbsp; &amp;nbsp; &amp;nbsp; &amp;nbsp; &amp;nbsp; &amp;nbsp; : const&lt;br&gt;+cpu_id&amp;nbsp; &amp;nbsp; &amp;nbsp; &amp;nbsp; &amp;nbsp; &amp;nbsp; &amp;nbsp; &amp;nbsp;: int&amp;nbsp;&lt;br&gt;+ready_to_run&amp;nbsp; &amp;nbsp;: int&lt;br&gt;+wait&amp;nbsp; &amp;nbsp; &amp;nbsp; &amp;nbsp; &amp;nbsp; &amp;nbsp; &amp;nbsp; &amp;nbsp; &amp;nbsp; &amp;nbsp; : int&amp;nbsp;&lt;br&gt;+stop&amp;nbsp; &amp;nbsp; &amp;nbsp; &amp;nbsp; &amp;nbsp; &amp;nbsp; &amp;nbsp; &amp;nbsp; &amp;nbsp; &amp;nbsp;: int&amp;nbsp;&lt;br&gt;+complete&amp;nbsp; &amp;nbsp; &amp;nbsp; &amp;nbsp; &amp;nbsp; : int" style="text;strokeColor=none;fillColor=none;align=left;verticalAlign=top;spacingLeft=4;spacingRight=4;overflow=hidden;rotatable=0;points=[[0,0.5],[1,0.5]];portConstraint=eastwest;whiteSpace=wrap;html=1;" parent="PquAa38lctwWkDSnIu5R-1" vertex="1">
          <mxGeometry y="26" width="200" height="134" as="geometry" />
        </mxCell>
        <mxCell id="PquAa38lctwWkDSnIu5R-3" value="" style="line;strokeWidth=1;fillColor=none;align=left;verticalAlign=middle;spacingTop=-1;spacingLeft=3;spacingRight=3;rotatable=0;labelPosition=right;points=[];portConstraint=eastwest;strokeColor=inherit;" parent="PquAa38lctwWkDSnIu5R-1" vertex="1">
          <mxGeometry y="160" width="200" height="8" as="geometry" />
        </mxCell>
        <mxCell id="PquAa38lctwWkDSnIu5R-4" value="+simulateTimecycle : void&amp;nbsp;&lt;br&gt;+simulateProcess&amp;nbsp; &amp;nbsp; : void" style="text;strokeColor=none;fillColor=none;align=left;verticalAlign=top;spacingLeft=4;spacingRight=4;overflow=hidden;rotatable=0;points=[[0,0.5],[1,0.5]];portConstraint=eastwest;whiteSpace=wrap;html=1;" parent="PquAa38lctwWkDSnIu5R-1" vertex="1">
          <mxGeometry y="168" width="200" height="52" as="geometry" />
        </mxCell>
        <mxCell id="PquAa38lctwWkDSnIu5R-6" value="&lt;p style=&quot;margin:0px;margin-top:4px;text-align:center;text-decoration:underline;&quot;&gt;&lt;b&gt;P1 : Process&lt;/b&gt;&lt;/p&gt;&lt;hr&gt;&lt;p style=&quot;margin:0px;margin-left:8px;&quot;&gt;Pid&amp;nbsp; &amp;nbsp; &amp;nbsp; &amp;nbsp; &amp;nbsp; &amp;nbsp; &amp;nbsp; &amp;nbsp; &amp;nbsp; &amp;nbsp; &amp;nbsp; &amp;nbsp; &amp;nbsp; = 1&amp;nbsp;&lt;br style=&quot;border-color: var(--border-color);&quot;&gt;time_cycle&amp;nbsp; &amp;nbsp; &amp;nbsp; &amp;nbsp; &amp;nbsp; &amp;nbsp; &amp;nbsp;= rand&amp;nbsp;&lt;br style=&quot;border-color: var(--border-color);&quot;&gt;Process_state&amp;nbsp; &amp;nbsp; &amp;nbsp;= READY_TO_RUN&lt;br style=&quot;border-color: var(--border-color);&quot;&gt;cpu_id&amp;nbsp; &amp;nbsp; &amp;nbsp; &amp;nbsp; &amp;nbsp; &amp;nbsp; &amp;nbsp; &amp;nbsp; &amp;nbsp; &amp;nbsp;=&amp;nbsp; -1&lt;br style=&quot;border-color: var(--border-color);&quot;&gt;ready_to_run&amp;nbsp; &amp;nbsp; &amp;nbsp; &amp;nbsp;=&amp;nbsp; 0&amp;nbsp;&amp;nbsp;&lt;br style=&quot;border-color: var(--border-color);&quot;&gt;wait&amp;nbsp; &amp;nbsp; &amp;nbsp; &amp;nbsp; &amp;nbsp; &amp;nbsp; &amp;nbsp; &amp;nbsp; &amp;nbsp; &amp;nbsp; &amp;nbsp; &amp;nbsp; = 0&amp;nbsp;&lt;br style=&quot;border-color: var(--border-color);&quot;&gt;stop&amp;nbsp; &amp;nbsp; &amp;nbsp; &amp;nbsp; &amp;nbsp; &amp;nbsp; &amp;nbsp; &amp;nbsp; &amp;nbsp; &amp;nbsp; &amp;nbsp; &amp;nbsp;= 0&amp;nbsp;&lt;br style=&quot;border-color: var(--border-color);&quot;&gt;complete&amp;nbsp; &amp;nbsp; &amp;nbsp; &amp;nbsp; &amp;nbsp; &amp;nbsp; &amp;nbsp; = 0&amp;nbsp;&lt;br&gt;&lt;/p&gt;" style="verticalAlign=top;align=left;overflow=fill;fontSize=12;fontFamily=Helvetica;html=1;whiteSpace=wrap;" parent="1" vertex="1">
          <mxGeometry x="50" y="400" width="220" height="160" as="geometry" />
        </mxCell>
        <mxCell id="PquAa38lctwWkDSnIu5R-7" style="edgeStyle=orthogonalEdgeStyle;rounded=0;orthogonalLoop=1;jettySize=auto;html=1;exitX=0.5;exitY=1;exitDx=0;exitDy=0;" parent="1" source="PquAa38lctwWkDSnIu5R-6" target="PquAa38lctwWkDSnIu5R-6" edge="1">
          <mxGeometry relative="1" as="geometry" />
        </mxCell>
        <mxCell id="PquAa38lctwWkDSnIu5R-11" value="&lt;p style=&quot;margin:0px;margin-top:4px;text-align:center;text-decoration:underline;&quot;&gt;&lt;b&gt;P2 : Process&lt;/b&gt;&lt;/p&gt;&lt;hr&gt;&lt;p style=&quot;margin:0px;margin-left:8px;&quot;&gt;Pid&amp;nbsp; &amp;nbsp; &amp;nbsp; &amp;nbsp; &amp;nbsp; &amp;nbsp; &amp;nbsp; &amp;nbsp; &amp;nbsp; &amp;nbsp; &amp;nbsp; &amp;nbsp; &amp;nbsp; = 2&amp;nbsp;&lt;br style=&quot;border-color: var(--border-color);&quot;&gt;time_cycle&amp;nbsp; &amp;nbsp; &amp;nbsp; &amp;nbsp; &amp;nbsp; &amp;nbsp; &amp;nbsp;= rand&amp;nbsp;&lt;br style=&quot;border-color: var(--border-color);&quot;&gt;Process_state&amp;nbsp; &amp;nbsp; &amp;nbsp;= READY_TO_RUN&lt;br style=&quot;border-color: var(--border-color);&quot;&gt;cpu_id&amp;nbsp; &amp;nbsp; &amp;nbsp; &amp;nbsp; &amp;nbsp; &amp;nbsp; &amp;nbsp; &amp;nbsp; &amp;nbsp; &amp;nbsp;=&amp;nbsp; -1&lt;br style=&quot;border-color: var(--border-color);&quot;&gt;ready_to_run&amp;nbsp; &amp;nbsp; &amp;nbsp; &amp;nbsp;=&amp;nbsp; 0&amp;nbsp;&amp;nbsp;&lt;br style=&quot;border-color: var(--border-color);&quot;&gt;wait&amp;nbsp; &amp;nbsp; &amp;nbsp; &amp;nbsp; &amp;nbsp; &amp;nbsp; &amp;nbsp; &amp;nbsp; &amp;nbsp; &amp;nbsp; &amp;nbsp; &amp;nbsp; = 0&amp;nbsp;&lt;br style=&quot;border-color: var(--border-color);&quot;&gt;stop&amp;nbsp; &amp;nbsp; &amp;nbsp; &amp;nbsp; &amp;nbsp; &amp;nbsp; &amp;nbsp; &amp;nbsp; &amp;nbsp; &amp;nbsp; &amp;nbsp; &amp;nbsp;= 0&amp;nbsp;&lt;br style=&quot;border-color: var(--border-color);&quot;&gt;complete&amp;nbsp; &amp;nbsp; &amp;nbsp; &amp;nbsp; &amp;nbsp; &amp;nbsp; &amp;nbsp; = 0&amp;nbsp;&lt;br&gt;&lt;/p&gt;" style="verticalAlign=top;align=left;overflow=fill;fontSize=12;fontFamily=Helvetica;html=1;whiteSpace=wrap;" parent="1" vertex="1">
          <mxGeometry x="300" y="400" width="220" height="160" as="geometry" />
        </mxCell>
        <mxCell id="PquAa38lctwWkDSnIu5R-12" value="&lt;p style=&quot;margin:0px;margin-top:4px;text-align:center;text-decoration:underline;&quot;&gt;&lt;b&gt;P3 : Process&lt;/b&gt;&lt;/p&gt;&lt;hr&gt;&lt;p style=&quot;margin:0px;margin-left:8px;&quot;&gt;Pid&amp;nbsp; &amp;nbsp; &amp;nbsp; &amp;nbsp; &amp;nbsp; &amp;nbsp; &amp;nbsp; &amp;nbsp; &amp;nbsp; &amp;nbsp; &amp;nbsp; &amp;nbsp; &amp;nbsp; = 3&amp;nbsp;&lt;br style=&quot;border-color: var(--border-color);&quot;&gt;time_cycle&amp;nbsp; &amp;nbsp; &amp;nbsp; &amp;nbsp; &amp;nbsp; &amp;nbsp; &amp;nbsp;= rand&amp;nbsp;&lt;br style=&quot;border-color: var(--border-color);&quot;&gt;Process_state&amp;nbsp; &amp;nbsp; &amp;nbsp;= READY_TO_RUN&lt;br style=&quot;border-color: var(--border-color);&quot;&gt;cpu_id&amp;nbsp; &amp;nbsp; &amp;nbsp; &amp;nbsp; &amp;nbsp; &amp;nbsp; &amp;nbsp; &amp;nbsp; &amp;nbsp; &amp;nbsp;=&amp;nbsp; -1&lt;br style=&quot;border-color: var(--border-color);&quot;&gt;ready_to_run&amp;nbsp; &amp;nbsp; &amp;nbsp; &amp;nbsp;=&amp;nbsp; 0&amp;nbsp;&amp;nbsp;&lt;br style=&quot;border-color: var(--border-color);&quot;&gt;wait&amp;nbsp; &amp;nbsp; &amp;nbsp; &amp;nbsp; &amp;nbsp; &amp;nbsp; &amp;nbsp; &amp;nbsp; &amp;nbsp; &amp;nbsp; &amp;nbsp; &amp;nbsp; = 0&amp;nbsp;&lt;br style=&quot;border-color: var(--border-color);&quot;&gt;stop&amp;nbsp; &amp;nbsp; &amp;nbsp; &amp;nbsp; &amp;nbsp; &amp;nbsp; &amp;nbsp; &amp;nbsp; &amp;nbsp; &amp;nbsp; &amp;nbsp; &amp;nbsp;= 0&amp;nbsp;&lt;br style=&quot;border-color: var(--border-color);&quot;&gt;complete&amp;nbsp; &amp;nbsp; &amp;nbsp; &amp;nbsp; &amp;nbsp; &amp;nbsp; &amp;nbsp; = 0&amp;nbsp;&lt;br&gt;&lt;/p&gt;" style="verticalAlign=top;align=left;overflow=fill;fontSize=12;fontFamily=Helvetica;html=1;whiteSpace=wrap;" parent="1" vertex="1">
          <mxGeometry x="560" y="400" width="220" height="160" as="geometry" />
        </mxCell>
        <mxCell id="PquAa38lctwWkDSnIu5R-15" value="" style="html=1;verticalAlign=bottom;endArrow=block;edgeStyle=elbowEdgeStyle;elbow=vertical;curved=0;rounded=0;exitX=0.5;exitY=0;exitDx=0;exitDy=0;" parent="1" source="PquAa38lctwWkDSnIu5R-6" target="PquAa38lctwWkDSnIu5R-4" edge="1">
          <mxGeometry width="80" relative="1" as="geometry">
            <mxPoint x="240" y="360" as="sourcePoint" />
            <mxPoint x="370" y="310" as="targetPoint" />
            <Array as="points">
              <mxPoint x="350" y="340" />
              <mxPoint x="180" y="360" />
            </Array>
          </mxGeometry>
        </mxCell>
        <mxCell id="PquAa38lctwWkDSnIu5R-23" value="" style="html=1;verticalAlign=bottom;endArrow=block;edgeStyle=elbowEdgeStyle;elbow=vertical;curved=0;rounded=0;exitX=0.5;exitY=0;exitDx=0;exitDy=0;entryX=0.522;entryY=1.013;entryDx=0;entryDy=0;entryPerimeter=0;" parent="1" target="PquAa38lctwWkDSnIu5R-4" edge="1">
          <mxGeometry x="0.0344" y="-14" width="80" relative="1" as="geometry">
            <mxPoint x="410" y="400" as="sourcePoint" />
            <mxPoint x="380" y="320" as="targetPoint" />
            <Array as="points">
              <mxPoint x="400" y="330" />
              <mxPoint x="390" y="340" />
              <mxPoint x="600" y="340" />
              <mxPoint x="430" y="360" />
            </Array>
            <mxPoint x="10" y="4" as="offset" />
          </mxGeometry>
        </mxCell>
        <mxCell id="PquAa38lctwWkDSnIu5R-25" value="" style="html=1;verticalAlign=bottom;endArrow=block;edgeStyle=elbowEdgeStyle;elbow=vertical;curved=0;rounded=0;" parent="1" source="PquAa38lctwWkDSnIu5R-12" target="PquAa38lctwWkDSnIu5R-4" edge="1">
          <mxGeometry width="80" relative="1" as="geometry">
            <mxPoint x="450" y="400" as="sourcePoint" />
            <mxPoint x="660" y="310" as="targetPoint" />
            <Array as="points">
              <mxPoint x="450" y="330" />
              <mxPoint x="650" y="380" />
              <mxPoint x="640" y="340" />
              <mxPoint x="470" y="360" />
            </Array>
          </mxGeometry>
        </mxCell>
        <mxCell id="PquAa38lctwWkDSnIu5R-26" value="Class Name" style="rounded=1;whiteSpace=wrap;html=1;" parent="1" vertex="1">
          <mxGeometry x="330" y="60" width="110" height="20" as="geometry" />
        </mxCell>
        <mxCell id="PquAa38lctwWkDSnIu5R-27" value="Object 1" style="rounded=1;whiteSpace=wrap;html=1;" parent="1" vertex="1">
          <mxGeometry x="170" y="370" width="70" height="20" as="geometry" />
        </mxCell>
        <mxCell id="PquAa38lctwWkDSnIu5R-28" value="Object 2" style="rounded=1;whiteSpace=wrap;html=1;" parent="1" vertex="1">
          <mxGeometry x="425" y="370" width="70" height="20" as="geometry" />
        </mxCell>
        <mxCell id="PquAa38lctwWkDSnIu5R-29" value="Object 3" style="rounded=1;whiteSpace=wrap;html=1;" parent="1" vertex="1">
          <mxGeometry x="690" y="370" width="70" height="20" as="geometry" />
        </mxCell>
      </root>
    </mxGraphModel>
  </diagram>
</mxfile>
